<svg width="50" height="36" viewBox="0 0 50 36" fill="none" xmlns="http://www.w3.org/2000/svg">
<path d="M38.5022 35.8541H30.5379H28.3933H27.9302V25.1714H31.424C32.31 25.1714 32.8336 24.1645 32.31 23.4396L25.5137 14.0356C25.0808 13.4315 24.1847 13.4315 23.7517 14.0356L16.9554 23.4396C16.4319 24.1645 16.9454 25.1714 17.8415 25.1714H21.3353V35.8541H20.8721H18.7275H9.49465C4.20866 35.5621 0 30.6185 0 25.262C0 21.5668 2.00364 18.3449 4.97387 16.6031C4.70202 15.868 4.56106 15.0827 4.56106 14.2571C4.56106 10.4814 7.61183 7.43059 11.3875 7.43059C12.2031 7.43059 12.9884 7.57155 13.7234 7.84341C15.9083 3.21187 20.6204 0 26.0977 0C33.186 0.0100686 39.0257 5.43702 39.6902 12.3541C45.1373 13.2905 49.2755 18.3348 49.2755 24.0437C49.2755 30.1453 44.5232 35.4313 38.5022 35.8541Z" fill="#203E5F"/>
</svg>
